<?xml version="1.0" standalone="no"?>
<!DOCTYPE svg PUBLIC "-//W3C//DTD SVG 20010904//EN"
 "http://www.w3.org/TR/2001/REC-SVG-20010904/DTD/svg10.dtd">
<svg version="1.0" xmlns="http://www.w3.org/2000/svg"
 width="512.000000pt" height="512.000000pt" viewBox="0 0 512.000000 512.000000"
 preserveAspectRatio="xMidYMid meet">
<metadata>
Created by potrace 1.16, written by Peter Selinger 2001-2019
</metadata>
<g transform="translate(0.000000,512.000000) scale(0.100000,-0.100000)"
fill="#ff5599" stroke="none">
<path d="M3385 5101 c-51 -23 -78 -54 -106 -115 -41 -94 -4 -216 83 -274 l42
-27 478 -5 478 -5 -805 -805 c-779 -779 -806 -807 -821 -859 -50 -170 94 -321
268 -281 53 12 60 19 866 823 l812 812 0 -470 c0 -525 0 -519 71 -579 115 -98
282 -66 350 66 18 36 19 69 19 776 0 809 1 789 -59 863 -16 19 -53 48 -82 64
l-54 30 -750 2 c-713 3 -752 2 -790 -16z"/>
<path d="M2100 2385 c-39 -12 -139 -109 -852 -822 l-807 -807 -3 480 -3 480
-27 42 c-36 53 -102 92 -170 99 -99 10 -202 -56 -228 -144 -8 -27 -10 -262 -8
-778 l3 -740 30 -54 c16 -29 45 -66 64 -82 74 -60 54 -59 863 -59 707 0 740 1
776 19 78 40 122 113 122 201 0 87 -49 167 -125 201 -37 17 -76 19 -510 19
l-470 0 811 813 c810 810 812 812 824 866 20 84 1 151 -59 211 -66 66 -139 83
-231 55z"/>
</g>
</svg>
