<?xml version="1.0" standalone="no"?>
<!DOCTYPE svg PUBLIC "-//W3C//DTD SVG 20010904//EN"
 "http://www.w3.org/TR/2001/REC-SVG-20010904/DTD/svg10.dtd">
<svg version="1.0" xmlns="http://www.w3.org/2000/svg"
 width="512.000000pt" height="512.000000pt" viewBox="0 0 512.000000 512.000000"
 preserveAspectRatio="xMidYMid meet">
<metadata>
Created by potrace 1.16, written by Peter Selinger 2001-2019
</metadata>
<g transform="translate(0.000000,512.000000) scale(0.100000,-0.100000)"
fill="#ffffff" stroke="none">
<path d="M453 5101 c-124 -45 -226 -150 -267 -276 -15 -46 -16 -215 -14 -1941
l3 -1890 38 -76 c26 -53 54 -91 90 -124 51 -46 156 -104 189 -104 16 0 17 -25
20 -294 3 -281 4 -296 24 -323 11 -15 36 -38 54 -50 l33 -23 1937 0 1937 0 33
23 c18 12 43 35 54 50 20 27 21 42 24 323 3 269 4 294 20 294 33 0 138 58 189
104 36 33 64 71 90 124 l38 76 3 1890 c2 1723 1 1895 -14 1941 -35 109 -124
209 -232 262 l-57 28 -2070 2 c-1999 2 -2072 2 -2122 -16z m4174 -182 c53 -26
119 -99 133 -148 6 -23 10 -673 10 -1877 l0 -1840 -27 -55 c-25 -49 -98 -119
-123 -119 -5 0 -11 161 -12 363 -3 361 -3 362 -26 395 -13 18 -41 41 -62 52
-39 20 -66 20 -1960 20 -1894 0 -1921 0 -1960 -20 -21 -11 -49 -34 -62 -52
-23 -33 -23 -34 -26 -396 -1 -201 -7 -362 -12 -362 -25 0 -98 70 -122 119
l-28 55 0 1840 c0 1204 4 1854 10 1877 13 48 79 122 132 148 l43 21 2024 0
2025 0 43 -21z m-197 -4064 l0 -675 -1870 0 -1870 0 0 675 0 675 1870 0 1870
0 0 -675z"/>
<path d="M1084 4766 c-118 -38 -217 -157 -231 -275 l-5 -49 -48 -5 c-103 -12
-211 -92 -260 -192 -22 -43 -25 -64 -25 -150 0 -95 2 -103 34 -163 38 -70 92
-120 167 -154 49 -23 53 -23 479 -23 l430 0 56 26 c72 34 134 96 168 168 22
48 26 69 26 151 0 89 -2 99 -34 158 -54 100 -148 167 -251 179 l-48 6 -6 47
c-14 108 -92 212 -195 262 -56 27 -194 35 -257 14z m205 -195 c37 -27 71 -88
71 -129 0 -16 -6 -47 -14 -69 -17 -49 -11 -85 19 -113 19 -18 31 -21 67 -16
24 3 64 8 90 12 175 23 246 -220 89 -303 -44 -23 -46 -23 -415 -23 -366 0
-372 0 -416 23 -157 79 -87 326 86 303 142 -19 134 -20 161 5 23 22 24 28 18
79 -15 117 -12 154 17 192 15 19 42 42 60 52 45 23 125 17 167 -13z"/>
<path d="M4048 4765 c-114 -37 -227 -143 -269 -255 -118 -311 147 -638 471
-582 227 39 370 221 358 454 -8 157 -93 285 -236 356 -70 34 -82 37 -176 39
-68 2 -116 -2 -148 -12z m232 -186 c60 -27 98 -64 126 -124 57 -119 11 -255
-108 -321 -154 -84 -344 17 -365 195 -21 183 178 327 347 250z"/>
<path d="M3435 4415 c-38 -37 -35 -95 6 -129 26 -22 40 -26 95 -26 68 0 117
17 128 45 14 37 6 86 -19 110 -22 22 -32 25 -105 25 -73 0 -83 -3 -105 -25z"/>
<path d="M2833 4180 c-111 -23 -202 -113 -233 -227 -9 -36 -15 -43 -35 -43
-56 0 -133 -40 -184 -96 -137 -150 -92 -372 94 -464 l50 -25 375 0 c362 0 377
1 421 21 179 83 234 293 119 453 -36 49 -119 99 -180 107 -45 6 -45 6 -63 64
-21 74 -95 158 -166 188 -58 25 -140 34 -198 22z m127 -190 c8 -5 26 -20 40
-34 25 -28 28 -57 15 -143 -6 -39 -4 -45 24 -74 27 -26 37 -30 64 -25 97 19
125 19 160 -3 58 -35 72 -92 37 -149 -37 -61 -55 -63 -413 -60 -297 3 -324 4
-350 22 -67 45 -72 122 -11 175 38 34 84 40 143 20 86 -30 146 44 111 137 -20
53 23 125 86 143 29 9 66 5 94 -9z"/>
<path d="M4119 3821 c-21 -17 -24 -30 -27 -100 -4 -78 -3 -81 26 -111 39 -39
87 -41 126 -5 24 22 26 30 26 105 0 73 -3 83 -25 105 -30 31 -92 34 -126 6z"/>
<path d="M1904 3482 c-17 -14 -1190 -1259 -1346 -1429 -40 -44 -48 -58 -48
-92 0 -32 6 -44 31 -65 31 -26 47 -30 85 -20 12 3 316 318 675 700 359 382
655 694 659 694 6 0 783 -896 788 -909 1 -4 -61 -87 -138 -185 -114 -146 -140
-185 -140 -211 0 -63 64 -108 122 -86 17 6 179 204 463 565 240 306 440 558
444 560 4 3 224 -249 490 -559 265 -310 489 -566 497 -569 63 -24 124 17 124
83 0 35 -8 50 -57 108 -32 38 -270 316 -531 620 -421 491 -477 553 -508 559
-23 4 -42 1 -58 -10 -14 -9 -150 -175 -303 -370 -153 -196 -281 -354 -285
-353 -3 1 -187 211 -408 467 -221 256 -415 477 -431 493 -35 32 -92 36 -125 9z"/>
<path d="M1229 1352 c-37 -25 -185 -173 -198 -199 -19 -37 -13 -73 18 -104 33
-33 67 -37 111 -14 l30 16 0 -265 0 -264 -62 -4 c-51 -4 -65 -9 -85 -32 -31
-37 -31 -89 2 -121 24 -25 24 -25 235 -25 211 0 211 0 235 25 33 32 33 84 2
121 -20 23 -34 28 -85 32 l-62 4 0 395 0 395 -29 29 c-34 34 -73 38 -112 11z"/>
<path d="M1965 1361 c-104 -28 -187 -97 -231 -194 -29 -62 -29 -63 -32 -289
-4 -258 4 -305 63 -394 64 -93 144 -136 265 -142 71 -3 95 0 145 19 82 31 163
112 194 193 21 56 22 72 19 315 -3 242 -4 258 -26 302 -58 119 -166 190 -295
195 -40 2 -85 -1 -102 -5z m151 -190 c23 -10 52 -34 65 -52 23 -33 24 -40 27
-259 3 -222 3 -226 -20 -260 -13 -19 -39 -45 -57 -57 -68 -46 -177 -19 -222
54 -23 36 -24 49 -27 233 -4 212 2 249 45 301 50 59 116 73 189 40z"/>
<path d="M2785 1357 c-136 -45 -225 -163 -225 -298 0 -69 30 -148 70 -184 18
-16 18 -18 -14 -63 -45 -63 -59 -112 -54 -185 5 -76 34 -140 90 -196 67 -66
117 -85 230 -89 117 -5 176 12 247 68 54 43 105 133 116 207 9 57 -16 140 -59
196 l-34 45 23 22 c67 63 88 200 46 296 -28 64 -100 136 -166 165 -61 28 -208
36 -270 16z m182 -180 c65 -24 111 -86 97 -131 -8 -25 -41 -64 -69 -78 -100
-54 -255 3 -255 94 0 90 125 152 227 115z m23 -439 c31 -16 51 -35 63 -60 18
-37 18 -39 0 -76 -62 -126 -313 -96 -313 38 0 97 142 152 250 98z"/>
<path d="M3649 1355 c-106 -34 -194 -124 -225 -231 -12 -43 -15 -99 -12 -296
l3 -243 34 -63 c38 -70 90 -120 160 -154 38 -19 62 -23 146 -23 84 0 108 4
146 23 74 36 125 87 161 160 l33 67 0 260 c0 259 0 260 -26 315 -33 70 -99
136 -169 168 -68 32 -182 39 -251 17z m181 -188 c30 -16 51 -37 67 -67 22 -41
23 -53 23 -247 0 -228 -7 -258 -72 -305 -49 -35 -142 -33 -190 4 -63 48 -68
71 -68 300 0 195 1 207 23 248 26 50 90 90 142 90 18 0 51 -10 75 -23z"/>
</g>
</svg>
