<?xml version="1.0" standalone="no"?>
<!DOCTYPE svg PUBLIC "-//W3C//DTD SVG 20010904//EN"
 "http://www.w3.org/TR/2001/REC-SVG-20010904/DTD/svg10.dtd">
<svg version="1.0" xmlns="http://www.w3.org/2000/svg"
 width="512.000000pt" height="512.000000pt" viewBox="0 0 512.000000 512.000000"
 preserveAspectRatio="xMidYMid meet">

<g transform="translate(0.000000,512.000000) scale(0.100000,-0.100000)"
fill="#ff5599" stroke="none">
<path d="M2370 5113 c-379 -36 -661 -116 -980 -278 -378 -193 -717 -497 -965
-865 -104 -156 -232 -419 -294 -605 -49 -150 -89 -321 -113 -490 -17 -118 -17
-512 0 -630 42 -295 120 -553 242 -800 137 -280 272 -468 494 -691 221 -220
412 -357 681 -489 188 -92 309 -137 500 -185 500 -126 1002 -102 1490 71 150
53 408 183 540 271 302 202 573 480 769 788 72 113 188 353 235 486 235 662
194 1372 -115 1993 -124 250 -263 447 -458 648 -214 222 -430 379 -711 518
-296 146 -572 225 -900 255 -102 9 -333 11 -415 3z m545 -342 c634 -107 1171
-457 1523 -995 170 -258 286 -563 339 -891 24 -153 24 -497 0 -650 -108 -668
-474 -1222 -1042 -1580 -243 -153 -537 -261 -850 -312 -154 -24 -497 -24 -650
1 -497 81 -907 288 -1256 636 -345 343 -555 758 -636 1255 -24 153 -24 497 0
650 105 647 447 1183 983 1541 306 205 675 333 1054 368 108 10 418 -4 535
-23z"/>
<path d="M2442 4259 c-90 -11 -237 -59 -319 -105 -198 -110 -350 -293 -422
-510 -32 -96 -56 -258 -45 -309 18 -84 92 -141 172 -132 90 10 136 69 146 188
4 45 16 110 26 143 55 176 209 329 390 387 91 30 249 30 340 1 275 -89 460
-380 406 -639 -28 -137 -110 -271 -225 -368 -63 -53 -97 -72 -224 -129 -58
-26 -94 -51 -141 -98 -116 -116 -146 -207 -146 -435 0 -133 3 -159 20 -192 41
-81 146 -110 223 -62 63 39 71 65 77 246 6 205 5 203 173 284 269 130 461 352
543 627 48 161 35 358 -35 539 -81 212 -272 409 -482 497 -147 61 -323 86
-477 67z"/>
<path d="M2460 1468 c-25 -14 -58 -44 -75 -67 -27 -39 -30 -50 -30 -120 0 -68
3 -82 27 -117 15 -21 44 -50 65 -64 31 -21 48 -25 113 -25 65 0 82 4 113 25
21 14 50 43 65 64 24 35 27 49 27 116 0 67 -3 81 -27 116 -44 62 -90 88 -167
92 -55 3 -74 -1 -111 -20z"/>
</g>
</svg>
