<?xml version="1.0" standalone="no"?>
<!DOCTYPE svg PUBLIC "-//W3C//DTD SVG 20010904//EN"
 "http://www.w3.org/TR/2001/REC-SVG-20010904/DTD/svg10.dtd">
<svg version="1.0" xmlns="http://www.w3.org/2000/svg"
 width="512.000000pt" height="512.000000pt" viewBox="0 0 512.000000 512.000000"
 preserveAspectRatio="xMidYMid meet">

<g transform="translate(0.000000,512.000000) scale(0.100000,-0.100000)"
fill="#ffffff" stroke="none">
<path d="M2511 5106 c-87 -48 -50 -186 49 -186 51 0 100 49 100 99 0 75 -83
124 -149 87z"/>
<path d="M2065 5073 c-421 -91 -806 -273 -1120 -528 -191 -155 -392 -378 -528
-585 -80 -123 -210 -382 -262 -524 -51 -138 -110 -376 -131 -531 -23 -159 -25
-520 -5 -665 80 -582 327 -1083 732 -1489 729 -728 1808 -948 2769 -564 610
244 1130 751 1388 1353 229 533 272 1098 127 1666 -87 341 -265 692 -490 969
-92 114 -274 294 -387 384 -310 247 -722 440 -1095 512 -98 18 -153 -16 -153
-95 0 -64 26 -80 205 -124 276 -69 517 -173 741 -321 845 -561 1238 -1577 989
-2557 -211 -831 -872 -1491 -1700 -1699 -216 -54 -342 -69 -585 -69 -242 0
-368 15 -585 69 -724 182 -1333 719 -1609 1415 -302 766 -185 1630 312 2293
99 133 329 362 462 461 278 206 571 341 913 421 132 30 157 49 157 114 -1 72
-62 112 -145 94z"/>
<path d="M2310 4604 c-595 -71 -1140 -412 -1473 -919 -159 -244 -261 -506
-314 -810 -24 -140 -24 -490 0 -630 39 -224 97 -405 193 -602 64 -132 99 -168
154 -160 47 6 339 176 356 208 37 67 -12 149 -89 149 -12 0 -42 -12 -67 -26
-25 -14 -73 -41 -107 -60 l-62 -35 -19 38 c-86 171 -151 410 -176 651 l-5 52
119 0 c131 0 164 9 186 51 18 35 18 63 0 98 -22 42 -55 51 -187 51 l-119 0 5
38 c2 20 9 75 15 122 6 47 22 132 36 190 26 104 112 340 136 373 12 15 23 11
118 -43 58 -33 115 -60 127 -60 77 0 126 82 89 149 -8 14 -58 50 -112 82 -54
31 -100 61 -101 66 -7 20 122 180 236 294 114 114 274 243 294 236 5 -1 35
-47 66 -101 32 -54 68 -104 82 -112 67 -37 149 12 149 89 0 12 -21 58 -46 102
-25 44 -52 92 -60 108 l-15 27 58 26 c193 89 404 145 631 168 l52 5 0 -120 c0
-132 10 -167 55 -187 51 -23 107 -7 131 39 10 20 14 64 14 148 l0 121 48 -6
c138 -16 265 -39 356 -64 97 -28 310 -110 327 -127 4 -4 -19 -55 -51 -113 -33
-58 -60 -115 -60 -128 0 -35 25 -77 55 -90 67 -31 108 -6 167 100 75 133 68
127 119 94 74 -49 190 -149 281 -244 93 -96 211 -248 205 -265 -1 -5 -47 -35
-101 -66 -54 -32 -104 -68 -112 -82 -37 -67 12 -149 89 -149 12 0 69 27 127
60 58 32 108 56 113 51 16 -16 104 -248 130 -341 25 -90 48 -219 61 -337 l5
-53 -119 0 c-131 0 -164 -9 -186 -51 -18 -35 -18 -63 0 -98 22 -42 55 -51 187
-51 l119 0 -5 -37 c-21 -168 -29 -218 -45 -288 -29 -124 -128 -396 -149 -409
-4 -3 -54 22 -111 55 -58 32 -115 59 -127 59 -77 0 -126 -82 -89 -149 17 -32
308 -201 356 -208 54 -8 88 27 153 159 221 452 274 947 152 1424 -258 1005
-1216 1662 -2245 1538z"/>
<path d="M2453 2882 c-69 -25 -134 -76 -176 -139 -113 -171 -47 -398 143 -491
47 -23 68 -27 140 -27 73 0 93 4 142 28 70 34 130 94 160 157 l23 49 467 1
c501 0 507 1 534 51 18 35 18 63 0 98 -27 50 -33 51 -534 51 l-467 1 -23 49
c-69 147 -257 226 -409 172z m175 -202 c66 -41 88 -113 54 -179 -50 -99 -177
-105 -239 -12 -58 86 12 211 117 211 19 0 50 -9 68 -20z"/>
<path d="M1539 1641 l-29 -29 0 -440 0 -440 31 -26 c61 -52 147 -22 163 55 3
18 6 96 6 175 l0 144 105 0 c59 0 115 5 130 12 56 25 72 107 31 155 -24 27
-27 28 -145 31 l-121 4 0 94 0 94 125 0 c123 0 125 0 157 29 27 24 33 36 33
71 0 35 -6 47 -33 71 l-32 29 -196 0 -196 0 -29 -29z"/>
<path d="M2188 1646 c-14 -15 -28 -40 -32 -57 -12 -60 -6 -812 7 -849 17 -49
72 -76 121 -60 59 19 66 41 66 198 l0 139 103 5 c83 4 114 10 159 30 201 92
256 346 111 508 -25 28 -69 63 -97 78 -49 26 -58 27 -231 30 l-181 4 -26 -26z
m363 -199 c21 -14 39 -38 48 -63 13 -37 12 -44 -5 -79 -30 -62 -63 -79 -153
-83 l-78 -4 -6 78 c-4 42 -7 99 -7 126 l0 48 84 0 c70 0 88 -4 117 -23z"/>
<path d="M3138 1652 c-152 -55 -230 -201 -183 -342 30 -90 75 -125 257 -198
86 -35 166 -74 177 -86 32 -34 27 -78 -13 -113 -40 -36 -97 -47 -162 -33 -58
13 -76 23 -138 71 -59 48 -100 51 -145 13 -26 -22 -31 -33 -31 -72 0 -41 4
-50 46 -90 95 -91 268 -145 390 -123 77 15 140 46 189 95 54 54 78 108 83 184
5 77 -16 138 -67 195 -50 56 -87 77 -246 141 -76 30 -142 61 -147 68 -16 26
-7 57 23 82 25 22 41 26 89 26 50 0 71 -6 136 -41 87 -45 124 -47 162 -6 53
56 33 124 -53 176 -113 68 -264 90 -367 53z"/>
</g>
</svg>
