<?xml version="1.0" standalone="no"?>
<!DOCTYPE svg PUBLIC "-//W3C//DTD SVG 20010904//EN"
 "http://www.w3.org/TR/2001/REC-SVG-20010904/DTD/svg10.dtd">
<svg version="1.0" xmlns="http://www.w3.org/2000/svg"
 width="512.000000pt" height="512.000000pt" viewBox="0 0 512.000000 512.000000"
 preserveAspectRatio="xMidYMid meet">

<g transform="translate(0.000000,512.000000) scale(0.100000,-0.100000)"
fill="#ff5599" stroke="none">
<path d="M266 3984 c-34 -11 -64 -31 -102 -68 -90 -91 -84 9 -84 -1357 0
-1365 -6 -1263 85 -1354 93 -94 -147 -86 2415 -83 l2255 3 50 27 c59 31 94 67
126 128 l24 45 3 1215 c3 1387 9 1284 -83 1375 -93 93 145 85 -2399 84 -1962
0 -2247 -2 -2290 -15z m4576 -182 l33 -32 0 -1210 0 -1210 -33 -32 -32 -33
-2250 0 -2250 0 -32 33 -33 32 0 1209 0 1209 25 27 c14 15 34 31 45 35 11 5
1027 8 2257 7 l2238 -2 32 -33z"/>
<path d="M425 3735 c-25 -24 -25 -26 -25 -215 0 -257 -17 -240 240 -240 257 0
240 -17 240 240 0 257 17 240 -240 240 -189 0 -191 0 -215 -25z m295 -215 l0
-80 -80 0 -80 0 0 80 0 80 80 0 80 0 0 -80z"/>
<path d="M1065 3735 c-25 -24 -25 -26 -25 -215 0 -257 -17 -240 240 -240 189
0 191 0 215 25 25 24 25 26 25 215 0 257 17 240 -240 240 -189 0 -191 0 -215
-25z m295 -215 l0 -80 -80 0 -80 0 0 80 0 80 80 0 80 0 0 -80z"/>
<path d="M1705 3735 c-25 -24 -25 -26 -25 -215 0 -257 -17 -240 240 -240 257
0 240 -17 240 240 0 257 17 240 -240 240 -189 0 -191 0 -215 -25z m295 -215
l0 -80 -80 0 -80 0 0 80 0 80 80 0 80 0 0 -80z"/>
<path d="M2345 3735 c-25 -24 -25 -26 -25 -215 0 -257 -17 -240 240 -240 189
0 191 0 215 25 25 24 25 26 25 215 0 257 17 240 -240 240 -189 0 -191 0 -215
-25z m295 -215 l0 -80 -80 0 -80 0 0 80 0 80 80 0 80 0 0 -80z"/>
<path d="M2985 3735 c-25 -24 -25 -26 -25 -215 0 -257 -17 -240 240 -240 189
0 191 0 215 25 25 24 25 26 25 215 0 257 17 240 -240 240 -189 0 -191 0 -215
-25z m295 -215 l0 -80 -80 0 -80 0 0 80 0 80 80 0 80 0 0 -80z"/>
<path d="M3625 3735 c-25 -24 -25 -26 -25 -215 0 -257 -17 -240 240 -240 189
0 191 0 215 25 25 24 25 26 25 215 0 257 17 240 -240 240 -189 0 -191 0 -215
-25z m295 -215 l0 -80 -80 0 -80 0 0 80 0 80 80 0 80 0 0 -80z"/>
<path d="M4265 3735 c-25 -24 -25 -26 -25 -215 0 -257 -17 -240 240 -240 189
0 191 0 215 25 25 24 25 26 25 215 0 257 17 240 -240 240 -189 0 -191 0 -215
-25z m295 -215 l0 -80 -80 0 -80 0 0 80 0 80 80 0 80 0 0 -80z"/>
<path d="M425 3095 c-25 -24 -25 -26 -25 -215 0 -257 -17 -240 240 -240 257 0
240 -17 240 240 0 257 17 240 -240 240 -189 0 -191 0 -215 -25z m295 -215 l0
-80 -80 0 -80 0 0 80 0 80 80 0 80 0 0 -80z"/>
<path d="M1065 3095 c-25 -24 -25 -26 -25 -215 0 -257 -17 -240 240 -240 189
0 191 0 215 25 25 24 25 26 25 215 0 257 17 240 -240 240 -189 0 -191 0 -215
-25z m295 -215 l0 -80 -80 0 -80 0 0 80 0 80 80 0 80 0 0 -80z"/>
<path d="M1705 3095 c-25 -24 -25 -26 -25 -215 0 -257 -17 -240 240 -240 257
0 240 -17 240 240 0 257 17 240 -240 240 -189 0 -191 0 -215 -25z m295 -215
l0 -80 -80 0 -80 0 0 80 0 80 80 0 80 0 0 -80z"/>
<path d="M2345 3095 c-25 -24 -25 -26 -25 -215 0 -257 -17 -240 240 -240 189
0 191 0 215 25 25 24 25 26 25 215 0 257 17 240 -240 240 -189 0 -191 0 -215
-25z m295 -215 l0 -80 -80 0 -80 0 0 80 0 80 80 0 80 0 0 -80z"/>
<path d="M2985 3095 c-25 -24 -25 -26 -25 -215 0 -257 -17 -240 240 -240 189
0 191 0 215 25 25 24 25 26 25 215 0 257 17 240 -240 240 -189 0 -191 0 -215
-25z m295 -215 l0 -80 -80 0 -80 0 0 80 0 80 80 0 80 0 0 -80z"/>
<path d="M3625 3095 c-25 -24 -25 -26 -25 -215 0 -257 -17 -240 240 -240 189
0 191 0 215 25 25 24 25 26 25 215 0 257 17 240 -240 240 -189 0 -191 0 -215
-25z m295 -215 l0 -80 -80 0 -80 0 0 80 0 80 80 0 80 0 0 -80z"/>
<path d="M4265 3095 c-25 -24 -25 -26 -25 -215 0 -257 -17 -240 240 -240 189
0 191 0 215 25 25 24 25 26 25 215 0 257 17 240 -240 240 -189 0 -191 0 -215
-25z m295 -215 l0 -80 -80 0 -80 0 0 80 0 80 80 0 80 0 0 -80z"/>
<path d="M425 2455 c-25 -24 -25 -26 -25 -215 0 -257 -17 -240 240 -240 257 0
240 -17 240 240 0 257 17 240 -240 240 -189 0 -191 0 -215 -25z m295 -215 l0
-80 -80 0 -80 0 0 80 0 80 80 0 80 0 0 -80z"/>
<path d="M1065 2455 c-25 -24 -25 -26 -25 -215 0 -257 -17 -240 240 -240 189
0 191 0 215 25 25 24 25 26 25 215 0 257 17 240 -240 240 -189 0 -191 0 -215
-25z m295 -215 l0 -80 -80 0 -80 0 0 80 0 80 80 0 80 0 0 -80z"/>
<path d="M1705 2455 c-25 -24 -25 -26 -25 -215 0 -257 -17 -240 240 -240 189
0 191 0 215 25 25 24 25 26 25 215 0 257 17 240 -240 240 -189 0 -191 0 -215
-25z m295 -215 l0 -80 -80 0 -80 0 0 80 0 80 80 0 80 0 0 -80z"/>
<path d="M2345 2455 c-25 -24 -25 -26 -25 -215 0 -257 -17 -240 240 -240 257
0 240 -17 240 240 0 257 17 240 -240 240 -189 0 -191 0 -215 -25z m295 -215
l0 -80 -80 0 -80 0 0 80 0 80 80 0 80 0 0 -80z"/>
<path d="M2985 2455 c-25 -24 -25 -26 -25 -215 0 -257 -17 -240 240 -240 257
0 240 -17 240 240 0 257 17 240 -240 240 -189 0 -191 0 -215 -25z m295 -215
l0 -80 -80 0 -80 0 0 80 0 80 80 0 80 0 0 -80z"/>
<path d="M3625 2455 c-25 -24 -25 -26 -25 -215 0 -189 0 -191 25 -215 l24 -25
511 0 511 0 24 25 c25 24 25 26 25 215 0 189 0 191 -25 215 l-24 25 -511 0
-511 0 -24 -25z m935 -215 l0 -80 -400 0 -400 0 0 80 0 80 400 0 400 0 0 -80z"/>
<path d="M425 1815 c-25 -24 -25 -26 -25 -215 0 -189 0 -191 25 -215 l24 -25
311 0 311 0 24 25 c25 24 25 26 25 215 0 189 0 191 -25 215 l-24 25 -311 0
-311 0 -24 -25z m535 -215 l0 -80 -200 0 -200 0 0 80 0 80 200 0 200 0 0 -80z"/>
<path d="M1305 1815 c-25 -24 -25 -26 -25 -215 0 -189 0 -191 25 -215 l24 -25
1231 0 1231 0 24 25 c25 24 25 26 25 215 0 189 0 191 -25 215 l-24 25 -1231 0
-1231 0 -24 -25z m2375 -215 l0 -80 -1120 0 -1120 0 0 80 0 80 1120 0 1120 0
0 -80z"/>
<path d="M4025 1815 c-25 -24 -25 -26 -25 -215 0 -189 0 -191 25 -215 l24 -25
311 0 311 0 24 25 c25 24 25 26 25 215 0 189 0 191 -25 215 l-24 25 -311 0
-311 0 -24 -25z m535 -215 l0 -80 -200 0 -200 0 0 80 0 80 200 0 200 0 0 -80z"/>
</g>
</svg>
