<?xml version="1.0" standalone="no"?>
<!DOCTYPE svg PUBLIC "-//W3C//DTD SVG 20010904//EN"
 "http://www.w3.org/TR/2001/REC-SVG-20010904/DTD/svg10.dtd">
<svg version="1.0" xmlns="http://www.w3.org/2000/svg"
 width="512.000000pt" height="512.000000pt" viewBox="0 0 512.000000 512.000000"
 preserveAspectRatio="xMidYMid meet">
<metadata>
Created by potrace 1.16, written by Peter Selinger 2001-2019
</metadata>
<g transform="translate(0.000000,512.000000) scale(0.100000,-0.100000)"
fill="#ff5599" stroke="none">
<path d="M2918 4686 c-57 -20 -85 -42 -116 -88 l-27 -42 -3 -805 c-3 -901 -6
-858 68 -925 21 -19 56 -40 77 -46 27 -8 275 -10 840 -8 l801 3 44 30 c135 96
123 301 -23 375 -37 19 -60 20 -551 20 l-513 0 576 578 c495 495 579 584 594
624 50 135 -43 282 -186 296 -106 10 -89 24 -721 -607 l-578 -576 0 513 c0
485 -1 515 -19 550 -51 99 -162 144 -263 108z"/>
<path d="M560 2339 c-141 -56 -184 -255 -77 -356 69 -65 45 -63 609 -63 l513
0 -576 -577 c-631 -633 -617 -616 -607 -722 14 -143 161 -236 296 -186 40 15
129 99 625 594 l577 576 0 -513 c0 -491 1 -514 20 -551 74 -146 279 -158 375
-23 l30 44 3 801 c2 560 0 813 -8 840 -14 49 -65 106 -115 128 -38 17 -87 19
-840 18 -501 0 -809 -4 -825 -10z"/>
</g>
</svg>
